<svg width="189" height="50" viewBox="0 0 189 50" fill="none" xmlns="http://www.w3.org/2000/svg">
<rect x="1" y="1" width="187" height="48" fill="#C4CFA1" stroke="#C4CFA1" stroke-width="2"/>
<rect x="3.77942" y="2.53845" width="181.441" height="44.9231" stroke="#8B956D" stroke-width="2"/>
<g clip-path="url(#clip0_104_768)">
<path d="M67.2536 27H64.9402V30H62.6268V33H58V30H60.3134V27H62.6268V24H60.3134V21H58V18H62.6268V21H64.9402V24H67.2536V27ZM71.8723 33V18H81.126V21H83.4393V24H81.126V27H76.4991V33H71.8723ZM76.4991 24H78.8125V21H76.4991V24ZM92.6866 30H97.3135V33H88.0598V18H92.6866V30ZM111.186 21H113.499V33H108.872V27H106.559V33H101.932V21H104.245V18H111.186V21ZM106.559 24H108.872V21H106.559V24ZM122.746 33V24H120.433V21H118.12V18H122.746V21H127.373V18H132V21H129.687V24H127.373V33H122.746Z" fill="#1F1F1F"/>
</g>
<defs>
<clipPath id="clip0_104_768">
<rect width="72" height="15" fill="white" transform="translate(58 18)"/>
</clipPath>
</defs>
</svg>
